<?xml version="1.0" encoding="utf-8"?>
<!-- Generator: Adobe Illustrator 27.5.0, SVG Export Plug-In . SVG Version: 6.00 Build 0)  -->
<svg version="1.1" id="Layer_1" xmlns="http://www.w3.org/2000/svg" xmlns:xlink="http://www.w3.org/1999/xlink" x="0px" y="0px"
	 viewBox="0 0 4000 4000" style="enable-background:new 0 0 4000 4000;" xml:space="preserve">
<g>
	<g>
		<path style="fill:#1E1E1E;" d="M1387.564,447.105c9.176,5.735,18.303,11.66,28.435,16.153c40.716,18,75.84,38.518,105.374,61.552
			c60.437,47.152,115.107,104.721,164.011,172.708c5.066,7.296,10.02,14.751,14.862,22.365
			c33.834,53.077,62.014,108.958,84.538,167.643c10.641,27.685,21.728,57.681,33.261,89.986c0.382,1.083,1.418,2.867,3.106,5.352
			c0.892,1.306,1.179,1.179,0.86-0.382c-4.269-21.346-9.224-46.084-14.862-74.216c-13.381-66.713-36.75-131.036-66.044-189.339
			c-37.657-74.837-80.333-146.44-128.026-214.81c-20.884-29.868-44.539-57.872-71.635-86.211
			c-23.926-25.073-51.038-44.985-81.336-59.736c-23.862-11.628-45.415-13.285-64.658-4.97
			C1350.242,372.746,1350.672,419.483,1387.564,447.105z M1419.822,375.47c32.592,4.11,69.103,30.202,92.519,52.281
			c33.803,32.018,64.387,67.207,91.754,105.565c46.96,64.578,88.377,132.502,124.25,203.771c0.255,0.542,0.128,0.908-0.382,1.099
			c-0.637,0.255-1.067,0.191-1.29-0.191c-41.353-69.198-83.439-126.273-126.258-171.227c-38.677-40.557-73.658-70.886-104.944-90.99
			c-32.369-20.804-57.983-37.068-76.844-48.792c-5.862-3.664-13.046-9.797-21.553-18.399
			C1379.44,388.038,1397.791,372.65,1419.822,375.47z"/>
		<path style="fill:#1E1E1E;" d="M2157.965,958.348c50.656-130.495,129.348-238.545,236.076-324.15
			c63.495-50.911,136.93-88.52,220.306-112.829c21.569-5.926,44.507-11.119,68.816-15.579c14.082-2.613,25.663-7.152,34.742-13.62
			c6.85-4.874,12.138-12.314,15.866-22.317c4.142-14.719,2.788-28.418-4.062-41.098c-21.266-39.378-73.069-39.187-112.399-27.622
			c-33.994,9.972-67.143,26.188-99.448,48.649c-50.337,34.981-97.441,76.685-141.311,125.111
			c-58.334,64.387-107.126,129.921-146.377,196.602c-34.376,58.366-58.7,120.539-72.973,186.519
			c-0.063,0.287-0.095,0.526-0.095,0.717v0.048C2157.168,959.861,2157.455,959.718,2157.965,958.348z M2355.714,636.587
			c46.928-60.086,101.965-112.606,165.11-157.559c28.291-20.135,61.313-37.068,99.066-50.799
			c20.788-7.551,56.917-13.19,76.414,0.478c10.068,7.041,12.059,15.929,5.974,26.666c-6.117,9.813-14.671,16.296-25.662,19.45
			c-36.479,10.545-65.104,19.386-85.876,26.523c-31.094,10.705-61.44,23.83-91.038,39.378
			c-52.344,26.985-99.878,59.37-142.601,97.154C2351.939,642.433,2351.477,642.003,2355.714,636.587z"/>
		<path style="fill:#1E1E1E;" d="M1919.07,696.657c-27.526,2.055-36.654,24.659-32.783,48.935
			c3.728,23.289,6.101,38.518,7.121,45.686c7.79,53.81,3.297,105.708-9.988,161.382c-0.041,0.206,0.034,0.418,0.196,0.552
			c0.243,0.203,0.605,0.169,0.808-0.074c14.942-17.204,27-35.22,36.176-54.049c18.51-37.912,30.935-75.888,37.275-113.928
			c3.966-23.703,4.11-58.828-13.572-77.896C1937.07,699.493,1928.659,695.956,1919.07,696.657z M1938.567,778.232
			c-3.25,35.491-11.581,68.545-24.993,99.161c-5.639,12.871-6.897,12.457-3.775-1.242c6.244-27.271,9.844-53.125,10.8-77.561
			c0.669-17.299-0.765-31.716-4.301-43.249c-2.915-9.319-15.579-27.144-0.478-34.886c2.918-1.474,6.44-1.02,8.889,1.147
			C1940.097,735.079,1940.288,759.738,1938.567,778.232z"/>
		<path style="fill:#1E1E1E;" d="M2057.338,787.509c-14.526,15.664-14.408,44.52-11.15,63.992
			c5.208,31.25,15.416,62.448,30.622,93.594c7.538,15.468,17.444,30.268,29.719,44.402c0.167,0.2,0.463,0.227,0.664,0.061
			c0.133-0.11,0.194-0.284,0.161-0.453c-10.914-45.737-14.604-88.372-8.205-132.578c0.837-5.889,2.787-18.399,5.85-37.532
			c3.18-19.944-4.319-38.513-26.932-40.201C2070.189,778.218,2063.28,781.123,2057.338,787.509z M2073.435,799.287
			c2.011-1.78,4.905-2.154,7.302-0.942c12.406,6.36,2.002,21.004-0.393,28.659c-2.905,9.475-4.083,21.318-3.533,35.53
			c0.785,20.074,3.743,41.314,8.873,63.717c2.565,11.254,1.531,11.594-3.102,1.021c-11.019-25.152-17.863-52.306-20.532-81.463
			C2060.636,830.616,2060.793,810.358,2073.435,799.287z"/>
		<path style="fill:#1E1E1E;" d="M1300.35,891.157c13.667-0.924,27.192-3.329,40.573-7.216
			c100.547-38.008,199.183-34.44,295.907,10.705c28.673,13.381,54.192,28.227,76.557,44.539c0.187,0.141,0.435,0.137,0.615-0.01
			c0.231-0.189,0.277-0.548,0.102-0.802c-65.853-77.991-145.309-133.171-238.37-165.54c-60.882-21.17-161.526-33.213-217.534,11.039
			c-12.202,9.653-20.072,22.206-23.608,37.657c-6.044,26.407,6.393,55.588,32.726,64.898
			C1277.716,890.102,1289.341,891.901,1300.35,891.157z M1275.213,802.031c5.607-4.97,14.719-9.621,27.336-13.954
			c29.501-10.131,59.847-13.572,91.037-10.323c38.741,4.014,76.366,13.62,112.877,28.817
			c45.495,19.052,88.441,43.519,128.838,73.403c0.145,0.112,0.202,0.304,0.048,0.573c-0.064,0.127-0.127,0.159-0.191,0.096
			c-84.841-43.392-174.365-56.677-268.572-39.856c-12.832,2.291-25.27,6.219-37.93,9.234c-12.471,2.97-25.92,9.289-38.957,6.648
			C1264.418,851.55,1256.473,818.641,1275.213,802.031z"/>
		<path style="fill:#1E1E1E;" d="M2732.093,849.408c26.785-9.469,39.435-39.152,33.288-66.012
			c-3.597-15.717-11.601-28.484-24.013-38.303c-56.969-45.012-159.34-32.762-221.267-11.229
			c-94.658,32.924-175.478,89.051-242.461,168.381c-0.178,0.258-0.132,0.624,0.104,0.816c0.184,0.15,0.436,0.154,0.626,0.01
			c22.749-16.592,48.706-31.693,77.871-45.303c98.384-45.919,198.713-49.549,300.986-10.888c13.61,3.953,27.367,6.4,41.269,7.34
			C2709.694,854.977,2721.518,853.147,2732.093,849.408z M2709.331,819.141c-13.261,2.686-26.94-3.742-39.625-6.762
			c-12.878-3.066-25.529-7.062-38.581-9.392c-95.824-17.11-186.885-3.597-273.181,40.54c-0.065,0.065-0.13,0.032-0.195-0.097
			c-0.157-0.274-0.099-0.469,0.049-0.583c41.091-30.397,84.774-55.284,131.049-74.663c37.137-15.458,75.408-25.228,114.814-29.311
			c31.726-3.305,62.592,0.195,92.599,10.5c12.833,4.407,22.101,9.138,27.805,14.194
			C2743.125,780.46,2735.044,813.933,2709.331,819.141z"/>
	</g>
	<path style="fill:#1E1E1E;" d="M1185.474,3595.999c-0.079,0.067-0.17,0.112-0.258,0.163c0.071-0.041,0.149-0.056,0.215-0.108
		C1185.449,3596.039,1185.456,3596.014,1185.474,3595.999z"/>
	<path style="fill:#1E1E1E;" d="M2095.801,1447.901c0.105-0.277,0.156-0.571,0.148-0.867c0.007,0.31-0.051,0.606-0.156,0.879
		C2095.795,1447.908,2095.799,1447.906,2095.801,1447.901z"/>
	<path style="fill:#1E1E1E;" d="M2515.963,1106.324c-0.456,0.23-0.875,0.529-1.242,0.885c0.436-0.424,0.945-0.713,1.47-0.948
		C2516.117,1106.295,2516.037,1106.287,2515.963,1106.324z"/>
	<path style="fill:#1E1E1E;" d="M2557.843,1460.584c0.026-0.128,0.131-0.222,0.123-0.359c-0.009-0.148-0.04-0.293-0.091-0.432
		C2557.973,1460.062,2557.892,1460.323,2557.843,1460.584z"/>
	<path style="fill:#1E1E1E;" d="M2845.849,2729.777c-0.051-0.147,0.005-0.284,0.019-0.428c-0.012,0.114-0.076,0.213-0.047,0.331
		C2845.828,2729.712,2845.838,2729.745,2845.849,2729.777z"/>
	<path style="fill:#1E1E1E;" d="M2177.383,1521.915c-0.158,0.159-0.355,0.26-0.492,0.445c-0.099,0.135-0.191,0.274-0.275,0.419
		C2176.819,1522.432,2177.113,1522.187,2177.383,1521.915z"/>
	<g>
		<path style="fill:#1E1E1E;" d="M2213.867,1657.847c-0.023,0.646,0.083,1.29,0.312,1.895c-0.237-0.626-0.334-1.27-0.311-1.9
			C2213.868,1657.843,2213.867,1657.845,2213.867,1657.847z"/>
		<g>
			<path style="fill:#1E1E1E;" d="M1951.054,1174.161c-11.119-9.749-19.307-16.551-24.563-20.406
				c-15.834-11.437-32.48-21.568-49.939-30.393c-84.012-42.5-172.851-71.396-266.517-86.689
				c-25.264-4.141-50.178-6.403-74.741-6.786c-16.471-0.287-29.469,1.195-38.995,4.444c-12.839,4.397-24.07,15.006-33.691,31.827
				c-89.874,157.193-166.336,317.507-229.385,480.945c-33.006,85.542-59.816,173.011-80.429,262.408
				c-13.954,56.359-24.165,113.004-30.632,169.936c-9.271,72.352-9.51,144.226-0.717,215.622
				c5.352,43.615,11.851,76.876,19.497,99.783c20.549,61.408,33.978,102.65,34.026,160.904
				c0.063,56.55-7.472,113.036-22.604,169.459c-20.899,77.672-41.146,143.493-60.739,197.463
				c-17.554,48.362-36.733,98.875-57.538,151.538c-33.356,84.554-72.129,167.611-116.318,249.17
				c-4.301,7.901-8.873,15.579-13.715,23.034c-18.685,32.209-48.649,69.293-83.248,83.678c-14.082,5.83-28.992,9.048-44.73,9.653
				c-15.26,0.637-25.217,0.733-29.868,0.287c-40.939-3.759-70.377-6.34-88.313-7.742c-24.341-1.88-43.313-0.908-56.916,2.915
				c-29.103,8.219-53.141,24.133-50.465,58.254c1.211,15.707,7.981,30.84,20.31,45.399c18.287,20.231,38.773,38.279,61.457,54.145
				c27.845,19.498,56.47,36.988,85.876,52.472c120.141,62.858,247.354,98.222,381.64,106.091c24.181,1.434,47.438-0.733,69.771-6.5
				c12.903-3.345,23.066-8.251,30.49-14.719c26.522-23.226,6.546-58.541-14.624-77.37c-12.234-10.864-28.577-22.381-49.031-34.551
				c-33.452-19.832-61.934-36.75-85.303-61.361c-10.609-10.004-19.099-21.298-25.47-33.882
				c-11.502-21.696-16.345-41.975-14.528-60.835c2.389-24.468,5.607-44.379,9.653-59.736c16.375-62.094,38.214-134.78,65.518-218.06
				c40.812-133.107,87.549-263.889,140.212-392.344c7.073-17.3,20.247-43.281,39.521-77.943
				c27.813-50.146,63.909-90.448,108.289-120.906c0.031-0.032,19.243-11.66,57.633-34.885
				c58.43-35.332,110.726-78.787,156.89-130.367c32.656-36.478,64.18-77.784,94.574-123.916
				c54.033-81.974,98.875-167.754,134.525-257.342c37.148-93.411,68.035-195.153,92.662-305.226
				c22.365-99.91,38.231-207.897,47.597-323.959c1.816-30.935,3.361-62.428,4.636-94.478c0-0.223,0.653-5.384,1.959-15.484
				C1966.458,1194.869,1961.886,1183.687,1951.054,1174.161z M1493.906,1054.207c0.76-0.687,1.656-1.206,2.63-1.525
				c9.016-2.931,18.622-4.445,28.817-4.54c70.058-0.621,140.355,15.866,208.215,37.466c67.86,21.601,134.764,48.792,191.537,89.795
				c8.283,5.989,15.245,12.776,20.884,20.358c2.42,3.232,1.762,7.815-1.47,10.235c-0.827,0.619-1.775,1.056-2.783,1.282
				c-17.554,3.887-36.144,4.922-55.77,3.106c-62.89-5.878-121.144-19.211-180.02-37.944
				c-58.923-18.781-114.167-41.576-168.837-73.116c-17.076-9.877-31.652-21.473-43.726-34.79
				C1490.676,1061.538,1490.91,1056.914,1493.906,1054.207z M1948.187,1261.471l-0.621,9.988
				c-11.851,122.371-31.318,243.435-58.397,363.194c-14.719,65.279-33.835,126.114-55.435,191.059
				c-26.379,79.297-59.847,158.323-100.404,237.079c-35.937,69.74-77.879,136.93-125.827,201.573
				c-49.652,67.048-110.679,130.606-178.395,175.098c-11.469,7.519-34.313,21.728-68.529,42.627
				c-25.614,15.611-48.808,35.826-69.58,60.644c-32.082,38.358-59.13,82.579-81.145,132.661
				c-12.712,29.023-23.958,56.056-33.738,81.097c-55.18,141.805-105.741,291.16-151.681,448.066
				c-13.254,45.24-24.198,88.138-32.831,128.695c-6.244,29.438-4.874,58.207,4.11,86.306c0,0,9.174,18.78,9.175,18.781
				c4.062,8.314,12.148,16.264,18.194,23.197c6.953,7.974,14.34,15.568,22.076,22.784c15.589,14.543,33.407,25.17,51.34,36.437
				c18.277,11.483,37.036,22.48,54.967,34.564c4.783,3.223,9.497,6.551,14.089,10.04c8.539,6.499,15.436,14.862,20.692,25.089
				c4.301,8.889,2.517,16.01-5.352,21.362c-6.945,4.715-14.257,7.933-21.935,9.653c-9.653,2.931-19.402,4.556-29.247,4.875
				c-23.13,0.797-46.228-0.032-69.293-2.485c-151.108-16.152-301.355-67.143-423.886-158.754
				c-20.899-15.325-39.139-33.022-54.718-53.093c-25.328-40.047,6.117-54.67,38.805-57.394c17.777-1.466,35.411-1.227,52.901,0.717
				c21.792,2.421,44.874,4.444,69.246,6.069c28.514,1.88,51.5,0.478,68.959-4.206c32.432-8.665,59.863-27.319,82.292-55.96
				c19.466-24.5,36.001-49.047,49.604-73.643c12.138-21.982,25.408-48.027,39.808-78.134
				c60.851-127.181,114.549-263.968,161.095-410.361c22.302-70.122,37.387-141.853,45.256-215.192
				c4.429-40.907,1.577-81.575-8.554-122.004c-3.855-15.42-12.935-44.077-27.24-85.972c-8.379-24.468-14.464-56.311-18.255-95.53
				c-11.326-117.273,1.959-237.892,27.288-355.069c23.639-109.532,54.017-212.5,91.133-308.906
				c64.228-166.926,139.017-331.605,223.89-482.14c0.59-1.028,1.892-1.403,2.909-0.837c0.381,0.212,0.683,0.538,0.867,0.932
				c2.708,5.544,6.372,10.37,10.992,14.48c14.942,13.349,29.629,23.91,44.061,31.684c94.239,50.783,195.328,85.366,303.267,103.749
				c29.565,5.034,54.877,7.105,75.936,6.212c11.533-0.478,22.461-2.979,32.783-7.503c1.338-0.605,1.959-0.175,1.864,1.29
				L1948.187,1261.471z"/>
			<path style="fill:#1E1E1E;" d="M1870.531,1452.195c-14.528-12.425-28.546-22.047-42.054-28.864
				c-106.409-53.651-219.477-79.138-339.204-76.462c-25.137,0.542-50.242,1.991-75.314,4.349l-24.755,1.959
				c-0.223,0-0.429,0.287-0.668,0.86c-0.191,0.478,0.111,0.701,0.908,0.669l21.983-1.147c29.119-1.402,58.27-0.956,87.453,1.338
				c110.679,8.698,220.545,34.695,318.416,86.832c21.218,11.326,42.675,24.611,54.384,45.065c0.828,1.466,0.797,2.915-0.096,4.349
				c-11.374,18.637-43.249,24.755-63.129,26.905c-65.917,7.009-131.467,5.814-196.65-3.584c-31.7-4.588-63.081-10.099-94.144-16.535
				c-41.353-8.506-81.32-19.912-119.902-34.216c-13.667-5.066-36.654-14.623-42.006-25.663c-1.142-2.355-1.281-5.211-0.381-7.661
				c0.84-2.286,2.62-4.312,4.816-5.393c0.13-0.064,0.26-0.125,0.392-0.183c10.992-4.811,24.452-8.538,40.382-11.183
				c59.353-9.749,119.185-3.919,194.5,3.106c55.499,5.193,110.854,11.613,166.065,19.259c0.621,0.091,1.241-0.258,1.529-0.86
				l0.478-1.147c0.096-0.191,0.032-0.318-0.191-0.382c-52.313-16.726-112.192-29.597-179.638-38.613
				c-44.81-5.99-90.261-8.581-135.443-6.307c-21.701,1.092-43.478,2.394-64.878,6.356c-18.45,3.417-38.559,7.614-51.201,22.68
				c-6.073,7.238-9.551,16.182-10.838,25.489c-1.306,9.43-2.947,16.439-4.922,21.027c-22.747,53.236-42.898,102.761-60.452,148.575
				c-27.399,71.651-50.099,146.249-68.099,223.794c-6.34,27.335-12.967,58.493-19.88,93.475
				c-10.418,52.759-16.646,112.399-18.685,178.921c-2.071,67.286,4.827,129.985,20.693,188.096
				c6.627,24.372,13.046,43.44,19.259,57.203c24.181,53.619,64.578,83.933,121.191,90.942c51.548,6.372,98.62-6.038,141.216-37.228
				c33.93-24.914,65.582-55.275,94.956-91.085c53.332-64.992,99.83-134.748,139.495-209.266
				c45.049-84.618,82.467-171.466,112.256-260.544c35.427-106.027,62.221-210.047,80.38-312.06
				c1.466-8.252,3.792-15.85,6.977-22.795C1896.05,1489.646,1890.984,1469.622,1870.531,1452.195z M1818.536,1554.75
				c-24.053,84.809-47.12,161.223-69.198,229.242c-35.523,109.468-78.82,220.513-129.89,333.135
				c-35.029,77.227-75.745,148.145-123.868,213.185c-27.781,37.53-55.467,65.932-83.056,85.207
				c-49.175,34.312-119.567,33.452-168.933-1.051c-19.72-13.795-33.913-32.974-42.579-57.538
				c-12.903-36.415-19.482-76.414-19.737-119.997c-0.446-69.07,6.372-140.323,20.453-213.759
				c15.723-82.053,37.61-170.175,64.802-251.942c24.34-73.116,56.406-164.393,96.198-273.829c0.67-1.822,2.43-3.052,4.444-3.106
				c2.537-0.068,4.829,1.539,7.087,2.483c2.662,1.113,5.351,2.163,8.062,3.149c5.904,2.147,11.998,3.652,17.923,5.688
				c6.034,2.074,12.225,3.791,18.353,5.583c16.287,4.763,32.682,9.159,49.17,13.174c16.38,3.989,32.852,7.602,49.399,10.829
				c16.474,3.213,33.022,6.043,49.628,8.483c16.568,2.435,33.193,4.483,49.857,6.139c16.663,1.656,33.364,2.92,50.086,3.793
				c16.757,0.875,33.535,1.356,50.315,1.448c16.852,0.092,33.706-0.209,50.545-0.897c16.004-0.654,32.021-1.569,47.975-3.003
				c1.551-0.139,2.921,1.005,3.06,2.556C1818.665,1554.067,1818.632,1554.416,1818.536,1554.75z"/>
			<path style="fill:#1E1E1E;" d="M1529.524,1751.615l-23.263-10.292c-8.672-3.836-14.974-11.604-16.94-20.881l-5.275-24.884
				c-0.282-1.331-2.104-1.521-2.655-0.276l-10.292,23.262c-3.836,8.672-11.604,14.974-20.881,16.94l-24.884,5.275
				c-1.331,0.282-1.521,2.104-0.277,2.655l23.263,10.292c8.672,3.836,14.974,11.604,16.94,20.881l5.275,24.885
				c0.282,1.331,2.104,1.521,2.654,0.276l10.292-23.262c3.837-8.672,11.605-14.974,20.881-16.94l24.884-5.275
				C1530.578,1753.988,1530.768,1752.166,1529.524,1751.615z"/>
		</g>
		<g>
			<path style="fill:#1E1E1E;" d="M2035.23,1207.709c1.306,10.099,1.959,15.26,1.959,15.484c1.274,32.05,2.82,63.543,4.636,94.478
				c9.366,116.063,25.232,224.049,47.597,323.959c24.627,110.073,55.514,211.815,92.662,305.226
				c35.65,89.588,80.492,175.368,134.525,257.342c30.394,46.132,61.918,87.438,94.574,123.916
				c46.164,51.58,98.46,95.036,156.89,130.367c38.39,23.226,57.601,34.854,57.633,34.885
				c44.38,30.457,80.477,70.759,108.289,120.906c19.275,34.663,32.449,60.644,39.521,77.943
				c52.663,128.456,99.4,259.237,140.212,392.344c27.303,83.28,49.143,155.966,65.518,218.06
				c4.046,15.356,7.264,35.268,9.653,59.736c1.817,18.86-3.026,39.139-14.528,60.835c-6.371,12.584-14.862,23.878-25.47,33.882
				c-23.369,24.611-51.851,41.528-85.303,61.361c-20.454,12.17-36.797,23.688-49.031,34.551
				c-21.17,18.829-41.146,54.144-14.624,77.37c7.424,6.467,17.586,11.373,30.49,14.719c22.333,5.766,45.591,7.933,69.771,6.5
				c134.286-7.869,261.499-43.233,381.64-106.091c29.406-15.483,58.031-32.974,85.876-52.472
				c22.684-15.866,43.169-33.914,61.457-54.145c12.329-14.559,19.099-29.692,20.31-45.399c2.676-34.121-21.362-50.035-50.465-58.254
				c-13.604-3.823-32.576-4.795-56.917-2.915c-17.937,1.402-47.375,3.983-88.313,7.742c-4.651,0.446-14.608,0.35-29.868-0.287
				c-15.739-0.605-30.648-3.823-44.73-9.653c-34.599-14.385-64.563-51.469-83.248-83.678c-4.843-7.455-9.414-15.133-13.715-23.034
				c-44.188-81.559-82.961-164.616-116.317-249.17c-20.804-52.663-39.983-103.176-57.538-151.538
				c-19.593-53.969-39.84-119.79-60.739-197.463c-15.133-56.423-22.668-112.909-22.604-169.459
				c0.048-58.254,13.477-99.496,34.026-160.904c7.646-22.906,14.145-56.167,19.498-99.783c8.793-71.396,8.554-143.27-0.717-215.622
				c-6.467-56.932-16.678-113.578-30.632-169.936c-20.613-89.397-47.422-176.866-80.429-262.408
				c-63.049-163.437-139.511-323.752-229.385-480.945c-9.621-16.822-20.852-27.431-33.691-31.827
				c-9.526-3.25-22.524-4.731-38.995-4.444c-24.563,0.382-49.477,2.644-74.741,6.786c-93.666,15.292-182.505,44.189-266.517,86.689
				c-17.459,8.825-34.105,18.956-49.939,30.393c-5.257,3.855-13.444,10.657-24.563,20.406
				C2038.114,1183.687,2033.542,1194.869,2035.23,1207.709z M2506.617,1064.534c-12.075,13.317-26.65,24.914-43.726,34.79
				c-54.67,31.54-109.914,54.336-168.837,73.116c-58.876,18.733-117.13,32.066-180.02,37.944
				c-19.625,1.816-38.215,0.781-55.77-3.106c-1.008-0.226-1.956-0.663-2.783-1.282c-3.232-2.42-3.89-7.003-1.47-10.235
				c5.639-7.583,12.6-14.369,20.884-20.358c56.773-41.003,123.677-68.194,191.537-89.795c67.86-21.6,138.157-38.087,208.215-37.466
				c10.195,0.095,19.801,1.609,28.817,4.54c0.974,0.318,1.87,0.838,2.63,1.525
				C2509.09,1056.914,2509.324,1061.538,2506.617,1064.534z M2049.28,1224.291c-0.096-1.465,0.526-1.896,1.864-1.29
				c10.323,4.524,21.25,7.025,32.783,7.503c21.059,0.892,46.371-1.179,75.936-6.212c107.939-18.383,209.028-52.966,303.267-103.749
				c14.432-7.774,29.119-18.335,44.061-31.684c4.62-4.11,8.283-8.936,10.992-14.48c0.183-0.395,0.486-0.721,0.866-0.932
				c1.017-0.566,2.319-0.191,2.909,0.837c84.873,150.534,159.661,315.214,223.89,482.14
				c37.116,96.406,67.494,199.374,91.133,308.906c25.328,117.178,38.614,237.796,27.288,355.069
				c-3.791,39.219-9.876,71.062-18.255,95.53c-14.305,41.895-23.385,70.552-27.24,85.972
				c-10.131,40.429-12.983,81.097-8.554,122.004c7.869,73.34,22.954,145.071,45.256,215.192
				c46.546,146.393,100.244,283.179,161.095,410.361c14.4,30.107,27.67,56.152,39.808,78.134
				c13.603,24.596,30.138,49.143,49.604,73.643c22.429,28.641,49.86,47.295,82.292,55.96c17.459,4.683,40.445,6.085,68.959,4.206
				c24.372-1.625,47.454-3.648,69.246-6.069c17.49-1.943,35.124-2.183,52.901-0.717c32.688,2.724,64.133,17.347,38.805,57.394
				c-15.579,20.071-33.819,37.769-54.718,53.093c-122.531,91.611-272.778,142.601-423.885,158.754
				c-23.066,2.453-46.164,3.282-69.294,2.485c-9.844-0.319-19.593-1.943-29.247-4.875c-7.678-1.72-14.99-4.938-21.935-9.653
				c-7.869-5.352-9.653-12.473-5.352-21.362c5.257-10.227,12.154-18.59,20.692-25.089c4.593-3.49,9.306-6.817,14.089-10.04
				c17.93-12.083,36.69-23.081,54.967-34.564c17.933-11.266,35.75-21.893,51.34-36.437c7.736-7.217,15.122-14.81,22.076-22.784
				c6.045-6.933,14.132-14.882,18.194-23.197c0.001-0.001,9.175-18.781,9.175-18.781c8.985-28.099,10.354-56.868,4.11-86.306
				c-8.634-40.556-19.577-83.455-32.831-128.695c-45.941-156.906-96.501-306.261-151.681-448.066
				c-9.781-25.041-21.027-52.074-33.739-81.097c-22.015-50.083-49.063-94.303-81.145-132.661
				c-20.772-24.818-43.966-45.033-69.58-60.644c-34.217-20.899-57.06-35.109-68.529-42.627
				c-67.717-44.491-128.743-108.05-178.395-175.098c-47.948-64.642-89.89-131.833-125.827-201.573
				c-40.557-78.756-74.025-157.782-100.404-237.079c-21.6-64.945-40.716-125.78-55.435-191.059
				c-27.08-119.758-46.546-240.823-58.398-363.194l-0.621-9.988L2049.28,1224.291z"/>
			<path style="fill:#1E1E1E;" d="M2114.273,1512.266c3.186,6.945,5.511,14.544,6.977,22.795
				c18.159,102.013,44.953,206.032,80.38,312.06c29.788,89.078,67.207,175.926,112.256,260.544
				c39.664,74.519,86.163,144.274,139.495,209.266c29.374,35.81,61.026,66.171,94.956,91.085
				c42.596,31.19,89.667,43.599,141.216,37.228c56.614-7.009,97.01-37.323,121.191-90.942c6.213-13.763,12.632-32.831,19.259-57.203
				c15.866-58.111,22.764-120.81,20.693-188.096c-2.04-66.522-8.268-126.162-18.686-178.921c-6.914-34.981-13.54-66.14-19.88-93.475
				c-18-77.545-40.699-152.143-68.099-223.794c-17.554-45.813-37.705-95.338-60.452-148.575c-1.975-4.588-3.616-11.597-4.923-21.027
				c-1.286-9.306-4.764-18.251-10.838-25.489c-12.642-15.066-32.751-19.264-51.201-22.68c-21.4-3.963-43.177-5.264-64.878-6.356
				c-45.182-2.274-90.633,0.317-135.443,6.307c-67.446,9.016-127.325,21.887-179.638,38.613c-0.223,0.064-0.287,0.191-0.191,0.382
				l0.478,1.147c0.289,0.602,0.908,0.951,1.529,0.86c55.212-7.646,110.567-14.066,166.065-19.259
				c75.315-7.025,135.146-12.855,194.5-3.106c15.93,2.644,29.39,6.372,40.382,11.183c0.132,0.058,0.262,0.119,0.392,0.183
				c2.196,1.081,3.976,3.107,4.816,5.393c0.9,2.45,0.761,5.307-0.381,7.661c-5.353,11.039-28.34,20.597-42.006,25.663
				c-38.582,14.305-78.549,25.71-119.902,34.216c-31.063,6.436-62.444,11.947-94.144,16.535
				c-65.184,9.398-130.734,10.593-196.65,3.584c-19.88-2.151-51.755-8.268-63.129-26.905c-0.892-1.434-0.924-2.883-0.096-4.349
				c11.708-20.453,33.165-33.739,54.384-45.065c97.871-52.137,207.737-78.134,318.416-86.832c29.183-2.294,58.334-2.74,87.453-1.338
				l21.983,1.147c0.796,0.031,1.099-0.191,0.908-0.669c-0.239-0.573-0.446-0.86-0.668-0.86l-24.756-1.959
				c-25.073-2.358-50.177-3.807-75.314-4.349c-119.727-2.676-232.795,22.811-339.204,76.462
				c-13.508,6.818-27.526,16.439-42.054,28.864C2109.016,1469.622,2103.95,1489.646,2114.273,1512.266z M2181.366,1553.721
				c0.139-1.551,1.51-2.695,3.061-2.556c15.954,1.434,31.972,2.349,47.975,3.003c16.838,0.688,33.692,0.989,50.544,0.897
				c16.78-0.092,33.558-0.573,50.315-1.448c16.722-0.873,33.424-2.138,50.086-3.793c16.664-1.656,33.289-3.703,49.857-6.139
				c16.606-2.441,33.154-5.271,49.628-8.483c16.547-3.227,33.019-6.84,49.399-10.829c16.488-4.015,32.883-8.411,49.17-13.174
				c6.128-1.792,12.319-3.509,18.353-5.583c5.925-2.036,12.019-3.541,17.923-5.688c2.711-0.986,5.4-2.036,8.062-3.149
				c2.258-0.944,4.55-2.551,7.087-2.483c2.013,0.054,3.774,1.285,4.444,3.106c39.792,109.436,71.858,200.712,96.198,273.829
				c27.192,81.766,49.079,169.889,64.802,251.942c14.081,73.435,20.899,144.688,20.453,213.759
				c-0.255,43.583-6.834,83.582-19.737,119.997c-8.666,24.563-22.859,43.743-42.579,57.538
				c-49.366,34.503-119.759,35.363-168.933,1.051c-27.59-19.275-55.275-47.677-83.056-85.207
				c-48.123-65.04-88.839-135.958-123.868-213.185c-51.07-112.622-94.366-223.667-129.889-333.135
				c-22.078-68.019-45.144-144.433-69.198-229.242C2181.368,1554.416,2181.335,1554.067,2181.366,1553.721z"/>
			<path style="fill:#1E1E1E;" d="M2470.477,1751.615l23.262-10.292c8.672-3.836,14.974-11.604,16.94-20.881l5.275-24.884
				c0.282-1.331,2.104-1.521,2.655-0.276l10.292,23.262c3.836,8.672,11.604,14.974,20.881,16.94l24.885,5.275
				c1.331,0.282,1.521,2.104,0.277,2.655l-23.263,10.292c-8.672,3.836-14.974,11.604-16.94,20.881l-5.275,24.885
				c-0.282,1.331-2.104,1.521-2.655,0.276l-10.292-23.262c-3.837-8.672-11.604-14.974-20.881-16.94l-24.884-5.275
				C2469.422,1753.988,2469.232,1752.166,2470.477,1751.615z"/>
		</g>
	</g>
</g>
</svg>
